# xmcd
#
# Track frame offsets:
#	150
#	25231
#	40632
#	56274
#	76591
#	90746
#	112431
#	134082
#	158422
#	181549
#	195246
#
# Disc length: 2917 seconds
#
# Revision: 1
# Processed by: cddbd v1.5.1PL0 Copyright (c) Steve Scherf et al.
# Submitted via: audiograbber 1.83.01
#
DISCID=7b0b630b
DTITLE=John "Papa" Gros - Day's End
DYEAR=2004
DGENRE=New Orleans Funk
TTITLE0=What's the Matter? Part 2,#35
TTITLE1=When That Evening Sun Goes Down
TTITLE2=Day's End
TTITLE3=Roll Away
TTITLE4=Keep on Gwine
TTITLE5=The Ground
TTITLE6=Make a Better World
TTITLE7=Last Good Taste
TTITLE8=Black Rider
TTITLE9=Try to Make a Stand
TTITLE10=Toulouse Serenade
EXTD=
EXTT0=
EXTT1=
EXTT2=
EXTT3=
EXTT4=
EXTT5=
EXTT6=
EXTT7=
EXTT8=
EXTT9=
EXTT10=
PLAYORDER=
